<svg xmlns="http://www.w3.org/2000/svg" viewBox="0 0 512 512" width="512" height="512">
  <title>Finch</title>
  <g transform="translate(0 -26)">
    <!-- tail: two feathers -->
    <path d="M178 316 L60 360 Q50 374 64 382 L192 348 Z" fill="#F5F3EF"/>
    <path d="M182 334 L78 398 Q72 412 88 414 L200 360 Z" fill="#C9C4BC"/>
    <!-- body -->
    <path d="M150 330 C150 220 240 140 330 140 C400 140 440 190 440 245 C440 330 370 392 280 395 C220 398 168 372 150 330 Z" fill="#FF7A1A"/>
    <!-- belly light -->
    <path d="M236 390 C336 398 428 330 438 254 C432 300 404 330 372 350 C336 372 290 384 236 390 Z" fill="#FFA24D"/>
    <!-- wing, swept back -->
    <path d="M352 256 C306 232 228 256 160 340 C244 336 318 316 352 256 Z" fill="#1B1F2A"/>
    <path d="M330 260 C292 252 246 270 206 306" fill="none" stroke="#FFFFFF" stroke-width="9" stroke-linecap="round"/>
    <!-- beak -->
    <path d="M434 212 L494 234 L434 254 Z" fill="#FFC145"/>
    <!-- eye -->
    <circle cx="382" cy="206" r="16" fill="#1B1F2A"/>
    <circle cx="388" cy="200" r="5" fill="#FFFFFF"/>
    <!-- legs and branch -->
    <path d="M276 394 L270 420 M316 390 L318 420" stroke="#F5F3EF" stroke-width="10" stroke-linecap="round"/>
    <path d="M120 424 L440 424" stroke="#F5F3EF" stroke-width="14" stroke-linecap="round"/>
  </g>
</svg>
